<svg width="20" height="20" viewBox="0 0 20 20" fill="none" xmlns="http://www.w3.org/2000/svg">
<path fill-rule="evenodd" clip-rule="evenodd" d="M13.333 10.0026C13.333 11.8436 11.8406 13.3359 9.99967 13.3359C8.15872 13.3359 6.66634 11.8436 6.66634 10.0026C6.66634 8.16165 8.15872 6.66927 9.99967 6.66927C11.8406 6.66927 13.333 8.16165 13.333 10.0026ZM12.083 10.0026C12.083 11.1532 11.1503 12.0859 9.99967 12.0859C8.84908 12.0859 7.91634 11.1532 7.91634 10.0026C7.91634 8.85201 8.84908 7.91927 9.99967 7.91927C11.1503 7.91927 12.083 8.85201 12.083 10.0026Z" fill="white"/>
<path fill-rule="evenodd" clip-rule="evenodd" d="M9.99967 0.835938C9.77648 0.835938 9.55505 0.843926 9.33566 0.859646C8.69936 0.90524 8.2144 1.37321 8.07538 1.94575L7.78201 3.15402C7.76618 3.21923 7.7074 3.2975 7.59504 3.33805C7.38789 3.4128 7.18525 3.49693 6.98763 3.58989C6.87967 3.64068 6.7828 3.62695 6.72547 3.59201L5.66355 2.94502C5.16064 2.63861 4.4872 2.65045 4.00501 3.0676C3.66937 3.35797 3.35504 3.6723 3.06467 4.00794C2.64752 4.49013 2.63568 5.16357 2.94209 5.66648L3.58908 6.7284C3.62402 6.78573 3.63775 6.8826 3.58696 6.99056C3.49399 7.18818 3.40987 7.39082 3.33512 7.59797C3.29457 7.71033 3.2163 7.76911 3.15109 7.78494L1.94282 8.07831C1.37028 8.21733 0.902311 8.70229 0.856717 9.33858C0.840996 9.55798 0.833008 9.77941 0.833008 10.0026C0.833008 10.2258 0.840996 10.4472 0.856717 10.6666C0.902311 11.3029 1.37028 11.7879 1.94282 11.9269L3.15109 12.2203C3.2163 12.2361 3.29457 12.2949 3.33512 12.4072C3.40987 12.6144 3.49399 12.817 3.58696 13.0146C3.63775 13.1226 3.62402 13.2195 3.58908 13.2768L2.94209 14.3387C2.63568 14.8416 2.64752 15.5151 3.06467 15.9973C3.35504 16.3329 3.66937 16.6472 4.00501 16.9376C4.4872 17.3548 5.16064 17.3666 5.66355 17.0602L6.72547 16.4132C6.7828 16.3783 6.87967 16.3645 6.98763 16.4153C7.18525 16.5083 7.38789 16.5924 7.59504 16.6672C7.7074 16.7077 7.76618 16.786 7.78201 16.8512L8.07538 18.0595C8.2144 18.632 8.69936 19.1 9.33566 19.1456C9.55505 19.1613 9.77648 19.1693 9.99967 19.1693C10.2229 19.1693 10.4443 19.1613 10.6637 19.1456C11.3 19.1 11.785 18.632 11.924 18.0595L12.2173 16.8512C12.2332 16.786 12.2919 16.7077 12.4043 16.6672C12.6115 16.5924 12.8141 16.5083 13.0117 16.4153C13.1197 16.3645 13.2165 16.3783 13.2739 16.4132L14.3358 17.0602C14.8387 17.3666 15.5121 17.3548 15.9943 16.9376C16.33 16.6472 16.6443 16.3329 16.9347 15.9973C17.3518 15.5151 17.3637 14.8416 17.0573 14.3387L16.4103 13.2768C16.3753 13.2195 16.3616 13.1226 16.4124 13.0146C16.5054 12.817 16.5895 12.6144 16.6642 12.4072C16.7048 12.2949 16.783 12.2361 16.8483 12.2203L18.0565 11.9269C18.6291 11.7879 19.097 11.3029 19.1426 10.6666C19.1584 10.4472 19.1663 10.2258 19.1663 10.0026C19.1663 9.77941 19.1584 9.55798 19.1426 9.33859C19.097 8.70229 18.6291 8.21733 18.0565 8.07831L16.8483 7.78494C16.783 7.76911 16.7048 7.71033 16.6642 7.59797C16.5895 7.39082 16.5054 7.18818 16.4124 6.99056C16.3616 6.88261 16.3753 6.78573 16.4103 6.72839L17.0573 5.66648C17.3637 5.16357 17.3518 4.49013 16.9347 4.00794C16.6443 3.6723 16.33 3.35797 15.9943 3.0676C15.5121 2.65045 14.8387 2.63861 14.3358 2.94502L13.2739 3.59201C13.2165 3.62695 13.1197 3.64068 13.0117 3.58989C12.8141 3.49692 12.6115 3.4128 12.4043 3.33805C12.2919 3.2975 12.2332 3.21923 12.2173 3.15402L11.924 1.94575C11.785 1.37321 11.3 0.90524 10.6637 0.859646C10.4443 0.843926 10.2229 0.835938 9.99967 0.835938ZM9.425 2.10645C9.61468 2.09286 9.80632 2.08594 9.99967 2.08594C10.193 2.08594 10.3847 2.09286 10.5744 2.10645C10.6206 2.10977 10.6868 2.14823 10.7093 2.24068L11.0026 3.44896C11.1295 3.97137 11.5236 4.34913 11.98 4.51384C12.1503 4.5753 12.317 4.64449 12.4796 4.72098C12.919 4.92769 13.465 4.93928 13.9243 4.65949L14.9862 4.0125C15.0674 3.96302 15.1414 3.98256 15.1765 4.01293C15.4666 4.26393 15.7384 4.53564 15.9893 4.82577C16.0197 4.86087 16.0393 4.93488 15.9898 5.0161L15.3428 6.07801C15.063 6.53723 15.0746 7.08328 15.2813 7.52267C15.3578 7.68526 15.427 7.85194 15.4884 8.02227C15.6532 8.4787 16.0309 8.87281 16.5533 8.99965L17.7616 9.29302C17.854 9.31547 17.8925 9.38165 17.8958 9.42793C17.9094 9.61761 17.9163 9.80925 17.9163 10.0026C17.9163 10.196 17.9094 10.3876 17.8958 10.5773C17.8925 10.6236 17.854 10.6897 17.7616 10.7122L16.5533 11.0056C16.0309 11.1324 15.6532 11.5265 15.4884 11.9829C15.427 12.1533 15.3578 12.3199 15.2813 12.4825C15.0746 12.9219 15.063 13.468 15.3428 13.9272L15.9898 14.9891C16.0393 15.0703 16.0197 15.1443 15.9893 15.1794C15.7384 15.4696 15.4666 15.7413 15.1765 15.9923C15.1414 16.0226 15.0674 16.0422 14.9862 15.9927L13.9243 15.3457C13.465 15.0659 12.919 15.0775 12.4796 15.2842C12.317 15.3607 12.1503 15.4299 11.98 15.4914C11.5236 15.6561 11.1295 16.0338 11.0026 16.5562L10.7093 17.7645C10.6868 17.857 10.6206 17.8954 10.5744 17.8988C10.3847 17.9123 10.193 17.9193 9.99967 17.9193C9.80632 17.9193 9.61468 17.9123 9.425 17.8988C9.37872 17.8954 9.31254 17.857 9.29009 17.7645L8.99672 16.5562C8.86988 16.0338 8.47577 15.6561 8.01934 15.4914C7.84901 15.4299 7.68233 15.3607 7.51974 15.2842C7.08036 15.0775 6.53431 15.0659 6.07509 15.3457L5.01317 15.9927C4.93195 16.0422 4.85794 16.0226 4.82284 15.9923C4.53271 15.7413 4.261 15.4696 4.01 15.1794C3.97963 15.1443 3.96009 15.0703 4.00957 14.9891L4.65656 13.9272C4.93635 13.468 4.92476 12.9219 4.71805 12.4825C4.64156 12.3199 4.57237 12.1533 4.51091 11.9829C4.3462 11.5265 3.96844 11.1324 3.44603 11.0056L2.23776 10.7122C2.1453 10.6897 2.10684 10.6236 2.10352 10.5773C2.08993 10.3876 2.08301 10.196 2.08301 10.0026C2.08301 9.80925 2.08993 9.61761 2.10352 9.42792C2.10684 9.38165 2.1453 9.31547 2.23776 9.29302L3.44603 8.99965C3.96844 8.87281 4.3462 8.4787 4.51091 8.02227C4.57237 7.85194 4.64156 7.68526 4.71805 7.52267C4.92476 7.08329 4.93635 6.53724 4.65656 6.07802L4.00957 5.0161C3.96009 4.93488 3.97963 4.86087 4.01 4.82577C4.261 4.53564 4.53271 4.26393 4.82284 4.01293C4.85794 3.98256 4.93195 3.96302 5.01317 4.0125L6.07509 4.65949C6.53431 4.93928 7.08036 4.92769 7.51974 4.72098C7.68233 4.64449 7.84901 4.5753 8.01934 4.51384C8.47577 4.34913 8.86988 3.97137 8.99672 3.44896L9.29009 2.24068C9.31254 2.14823 9.37872 2.10977 9.425 2.10645Z" fill="white"/>
</svg>
